# xmcd CD database file
#
# Track frame offsets:
#	187
#	22962
#	41477
#	62877
#	80920
#	93092
#	107155
#	124702
#	147527
#	167505
#	181195
#	193985
#	209607
#	227420
#	238682
#	256817
#	271092
#	284362
#	298417
#	308397
#	318077
#
# Disc length: 4406 seconds
#
# Revision: 0
# Processed by: cddbd v1.5.1PL0 Copyright (c) Steve Scherf et al.
# Submitted via: CDex 1.51
#
DISCID=2c113415
DTITLE=Stan Getz - Cool Velvet and Voices
DYEAR=1960
DGENRE=Jazz
TTITLE0=The Thrill Is Gone
TTITLE1=It Never Entered My Mind
TTITLE2=Early Autumn
TTITLE3=When I Go, I Go All The Way
TTITLE4=A New Town Is A Blue Town
TTITLE5='Round Midnight
TTITLE6=Born To Be Blue
TTITLE7=Whisper Not
TTITLE8=Good-Bye
TTITLE9=Nature Boy
TTITLE10=Once
TTITLE11=I Didn't Know What Time It Was
TTITLE12=Nica's Dream
TTITLE13=(Little Rio) Un Poco Rio
TTITLE14=Keep Me In Your Heart (Chiedilo A Chi Vuoi)
TTITLE15=Zigeuner Song
TTITLE16=Barbara's Theme (aka "I Want To Live")
TTITLE17=Where Flamingos Fly
TTITLE18=Midnight Samba
TTITLE19=Infinidad
TTITLE20=Darling Joe
EXTD=YEAR: 1960
EXTT0=
EXTT1=
EXTT2=
EXTT3=
EXTT4=
EXTT5=
EXTT6=
EXTT7=
EXTT8=
EXTT9=
EXTT10=
EXTT11=
EXTT12=
EXTT13=
EXTT14=
EXTT15=
EXTT16=
EXTT17=
EXTT18=
EXTT19=
EXTT20=
PLAYORDER=
